<?xml version="1.0" encoding="utf-8"?>
<!-- Generator: Adobe Illustrator 21.0.2, SVG Export Plug-In . SVG Version: 6.00 Build 0)  -->
<svg version="1.1" id="Layer_1" xmlns="http://www.w3.org/2000/svg" xmlns:xlink="http://www.w3.org/1999/xlink" x="0px" y="0px"
	 viewBox="0 0 400 140" style="enable-background:new 0 0 400 140;" xml:space="preserve">
<style type="text/css">
	.st0{fill:#1D1D1B;}
	.st1{fill:#E1231D;}
	.st2{fill:#6F6F6E;}
</style>
<g>
	<g>
		<path class="st0" d="M398.4,26.4l-0.5,14.3c0,0-9.8-1-14.5-1c-11.9,0-14.1,4.1-14.1,15.9c0,13.3,2.4,17.2,14.2,17.2
			c4.7,0,14.3-1,14.3-1l0.5,14.3c0,0-13.2,2.6-20.2,2.6c-18.4,0-25.7-9.8-25.7-33.1c0-21.9,7.7-31.7,26.1-31.7
			C385.8,23.8,398.4,26.4,398.4,26.4"/>
		<path class="st0" d="M78.8,40.8c0,0-16.3-2-23.9-2c-7.6,0-9.2,1.5-9.2,4.9c0,2.9,2.5,3.6,12.3,5.1c17.5,2.6,23,7.3,23,19.9
			c0,14.6-10.1,20.2-26.5,20.2c-9.7,0-25.2-3-25.2-3l0.5-14.1c0,0,16.3,2,23,2c8.4,0,10.6-1.5,10.6-4.7c0-2.7-1.4-3.7-10.6-5.2
			C35.7,61.1,28.1,57.3,28.1,44c0-14.5,11.7-20.3,25.5-20.3c9.5,0,25.5,3.1,25.5,3.1L78.8,40.8z"/>
	</g>
	<polygon class="st0" points="102.3,25.2 114.2,71 117.2,71 129.2,25.2 146.5,25.2 127.1,103.1 109.9,103.1 112.9,87.4 101.1,87.4 
		84.9,25.2 	"/>
	<g>
		<path class="st0" d="M153.1,87.4V25.2h17.6v3.5c0,0,8.8-5,16.3-5c18.4,0,23.1,11,23.1,31.2v32.5h-17.6V54.2
			c0-9.5-1.3-15.6-9.9-15.6c-6.2,0-11.9,2.2-11.9,2.2v46.5H153.1z"/>
		<path class="st0" d="M272.2,72.4l0.3,13c0,0-15.1,3.5-27.3,3.5c-19.8,0-28.2-9.3-28.2-31.8c0-22.2,9.8-33.4,29-33.4
			c19.3,0,28.6,9.2,28.6,28.1l-1.3,11.7h-38.6c0.1,7.1,3.8,10.1,13.3,10.1C258.6,73.5,272.2,72.4,272.2,72.4 M257.2,50.6
			c0-8.8-3-12.1-11.3-12.1c-8.4,0-11.3,3.9-11.4,12.1H257.2z"/>
		<path class="st0" d="M302.9,40.2v23.6c0,6.2,0,9.1,5.5,9.1c3.7,0,10-0.2,10-0.2l0.8,14.3c0,0-8.8,1.9-13.4,1.9
			c-15.9,0-20.5-5.7-20.5-23.7V40.2h-7.8V25.2h7.8V7.7h17.6v17.5h16.2v15.1H302.9z"/>
	</g>
	<path class="st0" d="M327.1,87.4h17.6V25.2h-17.6V87.4z M327.1,17.1h17.6V0h-17.6V17.1z"/>
</g>
<g>
	<rect x="1.6" y="71.6" class="st1" width="15.9" height="15.9"/>
</g>
<g>
	<path class="st2" d="M33.4,118.4v1.8h4.8v1.1h-4.8v12.2c0.4,0,0.7,0,1,0c0.3,0,0.5,0,0.7,0c0.1,0,0.2,0,0.3,0
		c0.4,0,0.6,0.2,0.6,0.5v0.6h-2.5H32h-2.5v-0.6c0-0.3,0.2-0.5,0.6-0.5c0,0,0.1,0,0.3,0c0.1,0,0.4,0,0.6,0c0.3,0,0.6,0,0.9,0v-12.2
		l-2.1-0.1c-0.3,0-0.4-0.1-0.4-0.4v-0.6H32v-1.9c0-0.8,0.1-1.6,0.3-2.2c0.2-0.6,0.5-1.2,0.9-1.6c0.4-0.4,0.9-0.8,1.4-1
		c0.6-0.2,1.2-0.3,1.9-0.3c0.3,0,0.6,0,0.9,0.1c0.3,0.1,0.6,0.1,0.8,0.2l0,0.7c0,0.1-0.1,0.2-0.3,0.2c-0.1,0-0.3,0-0.5,0
		c-0.2,0-0.5,0-0.8,0c-0.5,0-0.9,0.1-1.4,0.2c-0.4,0.1-0.8,0.4-1.1,0.7c-0.3,0.3-0.5,0.7-0.7,1.3C33.4,117.1,33.4,117.7,33.4,118.4"
		/>
	<path class="st2" d="M57,134.1v0.6h-2.2H54c-0.3,0-0.4-0.1-0.4-0.4l-0.1-2.2c-0.7,0.9-1.5,1.5-2.4,2.1c-0.9,0.5-1.9,0.8-3,0.8
		c-0.8,0-1.6-0.1-2.2-0.4c-0.6-0.3-1.1-0.6-1.5-1.1c-0.4-0.5-0.7-1.1-0.9-1.8c-0.2-0.7-0.3-1.5-0.3-2.3V121c-0.3,0-0.5,0-0.7,0
		c-0.2,0-0.4,0-0.5,0c-0.1,0-0.2,0-0.2,0c-0.1,0-0.1,0-0.2,0c-0.4,0-0.6-0.2-0.6-0.5v-0.6h2.2l1.4,0v9.5c0,1.4,0.3,2.5,1,3.3
		c0.6,0.8,1.6,1.2,2.9,1.2c1,0,1.9-0.2,2.7-0.7c0.8-0.5,1.6-1.2,2.3-2.1v-10c-0.3,0-0.5,0-0.7,0c-0.2,0-0.4,0-0.5,0
		c-0.1,0-0.2,0-0.2,0c-0.1,0-0.1,0-0.2,0c-0.4,0-0.6-0.2-0.6-0.5v-0.6h2.2l1.4,0v13.7c0.3,0,0.5,0,0.7,0c0.2,0,0.4,0,0.5,0
		c0.1,0,0.2,0,0.2,0c0.1,0,0.1,0,0.2,0C56.8,133.6,57,133.8,57,134.1"/>
	<path class="st2" d="M66.2,134.1v0.6H64h-1.4h-2.2v-0.6c0-0.3,0.2-0.5,0.6-0.5c0,0,0.1,0,0.2,0c0.1,0,0.2,0,0.5,0
		c0.2,0,0.5,0,0.9,0v-19.4c-0.3,0-0.5,0-0.7,0c-0.2,0-0.4,0-0.5,0c-0.1,0-0.2,0-0.2,0c-0.1,0-0.1,0-0.2,0c-0.4,0-0.6-0.2-0.6-0.5
		v-0.6h2.2H64v20.6c0.3,0,0.5,0,0.7,0c0.2,0,0.4,0,0.5,0c0.1,0,0.2,0,0.2,0c0.1,0,0.1,0,0.2,0C66,133.6,66.2,133.8,66.2,134.1"/>
	<path class="st2" d="M75.3,134.1v0.6h-2.2h-1.4h-2.2v-0.6c0-0.3,0.2-0.5,0.6-0.5c0,0,0.1,0,0.2,0c0.1,0,0.2,0,0.5,0
		c0.2,0,0.5,0,0.9,0v-19.4c-0.3,0-0.5,0-0.7,0c-0.2,0-0.4,0-0.5,0c-0.1,0-0.2,0-0.2,0c-0.1,0-0.1,0-0.2,0c-0.4,0-0.6-0.2-0.6-0.5
		v-0.6h2.2h1.4v20.6c0.3,0,0.5,0,0.7,0c0.2,0,0.4,0,0.5,0c0.1,0,0.2,0,0.2,0c0.1,0,0.1,0,0.2,0C75.1,133.6,75.3,133.8,75.3,134.1"/>
	<path class="st2" d="M96.8,130.4c0,0.7-0.1,1.3-0.4,1.8c-0.2,0.6-0.6,1-1,1.5c-0.4,0.4-1,0.7-1.6,1c-0.6,0.2-1.4,0.4-2.2,0.4
		c-1.5,0-3-0.3-4.4-0.8v-3.6h0.7c0.4,0,0.6,0.2,0.6,0.7c0,0,0,0.2,0,0.4c0,0.2,0,0.5,0.1,0.8c0,0.3,0.1,0.7,0.1,1.1
		c0.8,0.3,1.8,0.5,2.9,0.5c0.6,0,1.2-0.1,1.7-0.3c0.5-0.2,0.9-0.4,1.2-0.7c0.3-0.3,0.6-0.7,0.7-1.1c0.2-0.4,0.2-0.8,0.2-1.3
		c0-0.5-0.1-0.9-0.4-1.2c-0.2-0.3-0.6-0.6-0.9-0.8c-0.4-0.2-0.8-0.4-1.3-0.6c-0.5-0.2-1-0.3-1.5-0.5c-0.5-0.2-1-0.3-1.5-0.5
		c-0.5-0.2-0.9-0.4-1.3-0.7c-0.4-0.3-0.7-0.6-0.9-1.1c-0.2-0.4-0.4-0.9-0.4-1.6c0-0.5,0.1-1,0.3-1.5c0.2-0.5,0.6-0.9,1-1.3
		c0.4-0.4,0.9-0.7,1.6-0.9c0.6-0.2,1.3-0.3,2.1-0.3c1.1,0,2.4,0.3,4,0.8v3.6h-0.7c-0.4,0-0.6-0.2-0.6-0.7c0,0,0-0.2,0-0.3
		c0-0.2,0-0.4-0.1-0.8c0-0.3,0-0.7-0.1-1c-0.8-0.3-1.6-0.4-2.4-0.4c-0.5,0-1,0.1-1.5,0.2c-0.4,0.2-0.8,0.4-1.1,0.6
		c-0.3,0.3-0.6,0.6-0.7,0.9c-0.2,0.3-0.3,0.7-0.3,1.1c0,0.5,0.1,0.9,0.4,1.2c0.2,0.3,0.6,0.6,0.9,0.8c0.4,0.2,0.8,0.4,1.3,0.6
		c0.5,0.2,1,0.3,1.5,0.5c0.5,0.2,1,0.3,1.5,0.5c0.5,0.2,0.9,0.4,1.3,0.7c0.4,0.3,0.7,0.6,0.9,1.1C96.7,129.3,96.8,129.8,96.8,130.4"
		/>
	<path class="st2" d="M108.9,120c0.7,0.3,1.3,0.7,1.9,1.3c0.5,0.6,0.9,1.2,1.2,2c0.3,0.8,0.4,1.7,0.4,2.8c0,0.2,0,0.4-0.1,0.5
		c-0.1,0.1-0.2,0.1-0.3,0.1h-10.8v0.3c0,1.1,0.1,2.1,0.4,3c0.3,0.8,0.6,1.6,1.1,2.1c0.5,0.6,1.1,1,1.7,1.3c0.7,0.3,1.4,0.4,2.3,0.4
		c0.7,0,1.4-0.1,1.9-0.2c0.6-0.2,1-0.3,1.4-0.6c0.4-0.2,0.7-0.4,0.9-0.6c0.2-0.2,0.4-0.2,0.5-0.2c0.1,0,0.2,0.1,0.3,0.2l0.4,0.5
		c-0.2,0.3-0.6,0.6-0.9,0.8c-0.4,0.3-0.8,0.5-1.3,0.7c-0.5,0.2-1,0.3-1.6,0.4c-0.6,0.1-1.1,0.2-1.7,0.2c-1,0-1.9-0.2-2.8-0.5
		c-0.8-0.4-1.6-0.9-2.2-1.6c-0.6-0.7-1.1-1.5-1.4-2.5c-0.3-1-0.5-2.1-0.5-3.4c0-1.1,0.2-2.1,0.5-3c0.3-0.9,0.7-1.7,1.3-2.3
		c0.6-0.7,1.3-1.2,2.1-1.5c0.8-0.4,1.8-0.6,2.8-0.6C107.5,119.6,108.2,119.7,108.9,120 M104.6,121c-0.6,0.2-1.1,0.6-1.6,1
		c-0.4,0.5-0.8,1-1.1,1.6c-0.3,0.6-0.5,1.3-0.5,2.1h9.8c0-0.8-0.1-1.5-0.3-2.2c-0.2-0.6-0.5-1.2-0.9-1.6c-0.4-0.4-0.9-0.8-1.4-1
		c-0.6-0.2-1.2-0.4-1.9-0.4C105.9,120.6,105.2,120.8,104.6,121"/>
	<path class="st2" d="M126.6,120.1l-0.2,1c0,0.2-0.1,0.2-0.3,0.2c-0.1,0-0.1,0-0.3-0.1c-0.1,0-0.2-0.1-0.4-0.1
		c-0.2,0-0.4-0.1-0.6-0.1c-0.2,0-0.5-0.1-0.8-0.1c-1.1,0-2.1,0.4-2.8,1.1c-0.7,0.7-1.3,1.7-1.8,3v8.5c1.2,0,1.4,0,1.6,0.1
		c0.4,0,0.6,0.1,0.6,0.5v0.6h-2.2h-1.4h-2.2v-0.6c0-0.4,0.2-0.5,0.6-0.5c0.2,0,0.3,0,1.6-0.1V121c-1.2,0-1.4-0.1-1.6-0.1
		c-0.4,0-0.6-0.1-0.6-0.5v-0.6h2.2h0.7c0.2,0,0.3,0,0.4,0.1c0.1,0.1,0.1,0.2,0.1,0.4l0.1,3.1c0.5-1.2,1.1-2.2,1.9-2.8
		c0.8-0.7,1.8-1,3-1c0.4,0,0.9,0,1.2,0.1C125.9,119.8,126.3,119.9,126.6,120.1"/>
	<path class="st2" d="M144.8,119.8v0.6c0,0.3-0.2,0.5-0.6,0.5c0,0-0.1,0-0.2,0c-0.1,0-0.2,0-0.3,0c-0.2,0-0.4,0-0.6,0l-5.8,13.7
		h-1.3l-5.8-13.7c-0.7,0-1,0-1,0c-0.4,0-0.6-0.2-0.6-0.5v-0.6h1.1h1.1h3v0.6c0,0.3-0.2,0.5-0.6,0.5c-0.1,0-0.1,0-0.2,0
		c-0.1,0-0.2,0-0.5,0c-0.3,0-0.5,0-0.9,0l4.6,10.9c0.1,0.2,0.2,0.4,0.2,0.7c0,0.1,0,0.2,0.1,0.3c0,0.1,0.1,0.2,0.1,0.3
		c0-0.2,0.1-0.4,0.2-0.6c0.1-0.2,0.1-0.4,0.2-0.7l4.6-10.9c-0.3,0-0.5,0-0.7,0c-0.2,0-0.4,0-0.4,0c-0.1,0-0.2,0-0.2,0
		c-0.1,0-0.1,0-0.2,0c-0.4,0-0.6-0.2-0.6-0.5v-0.6h3h1.1H144.8z"/>
	<path class="st2" d="M153.5,134.1v0.6h-2.2h-1.4h-2.2v-0.6c0-0.3,0.2-0.5,0.6-0.5c0,0,0.1,0,0.2,0c0.1,0,0.2,0,0.5,0
		c0.2,0,0.5,0,0.9,0V121c-0.3,0-0.5,0-0.7,0c-0.2,0-0.4,0-0.5,0c-0.1,0-0.2,0-0.2,0c-0.1,0-0.1,0-0.2,0c-0.4,0-0.6-0.2-0.6-0.5v-0.6
		h2.2h1.4v13.7c0.3,0,0.5,0,0.7,0c0.2,0,0.4,0,0.5,0c0.1,0,0.2,0,0.2,0c0.1,0,0.1,0,0.2,0C153.3,133.6,153.5,133.8,153.5,134.1
		 M149.4,115.2c-0.1-0.2-0.1-0.3-0.1-0.5c0-0.2,0-0.4,0.1-0.5s0.2-0.3,0.3-0.4c0.1-0.1,0.3-0.2,0.4-0.3c0.2-0.1,0.3-0.1,0.5-0.1
		c0.2,0,0.4,0,0.5,0.1c0.2,0.1,0.3,0.2,0.4,0.3c0.1,0.1,0.2,0.3,0.3,0.4c0.1,0.2,0.1,0.3,0.1,0.5c0,0.2,0,0.3-0.1,0.5
		c-0.1,0.2-0.2,0.3-0.3,0.4c-0.1,0.1-0.3,0.2-0.4,0.3c-0.2,0.1-0.3,0.1-0.5,0.1s-0.3,0-0.5-0.1c-0.2-0.1-0.3-0.2-0.4-0.3
		C149.6,115.5,149.5,115.3,149.4,115.2"/>
	<path class="st2" d="M168.1,132.8c-0.2,0.3-0.5,0.6-0.9,0.8c-0.3,0.3-0.7,0.5-1.2,0.7c-0.4,0.2-0.9,0.3-1.4,0.4
		c-0.5,0.1-1,0.2-1.6,0.2c-1,0-1.8-0.2-2.6-0.5c-0.8-0.3-1.5-0.8-2-1.5c-0.6-0.7-1-1.5-1.3-2.4c-0.3-1-0.5-2-0.5-3.2
		c0-1.1,0.1-2.2,0.5-3.1c0.3-0.9,0.7-1.7,1.3-2.4c0.6-0.7,1.3-1.2,2.1-1.6c0.8-0.4,1.8-0.6,2.9-0.6c0.3,0,0.9,0.1,1.6,0.2
		c0.7,0.2,1.3,0.3,1.8,0.5l0.8,0.2v3.8h-0.7c-0.4,0-0.6-0.2-0.6-0.7c0,0,0-0.2,0-0.4c0-0.2,0-0.5-0.1-0.8c0-0.4-0.1-0.7-0.1-1.1
		c-0.9-0.3-1.8-0.5-2.5-0.5c-0.9,0-1.6,0.2-2.3,0.5c-0.7,0.3-1.2,0.7-1.7,1.3c-0.5,0.6-0.8,1.3-1,2.1c-0.2,0.8-0.4,1.7-0.4,2.7
		c0,1.1,0.1,2,0.4,2.8c0.2,0.8,0.6,1.5,1,2c0.5,0.6,1,1,1.6,1.3c0.6,0.3,1.3,0.4,2.1,0.4c0.7,0,1.3-0.1,1.8-0.3
		c0.5-0.2,0.9-0.4,1.2-0.6c0.3-0.2,0.6-0.4,0.7-0.6c0.2-0.2,0.3-0.3,0.4-0.3c0.1,0,0.2,0,0.3,0.2L168.1,132.8z"/>
	<path class="st2" d="M180.2,120c0.7,0.3,1.3,0.7,1.9,1.3c0.5,0.6,0.9,1.2,1.2,2c0.3,0.8,0.4,1.7,0.4,2.8c0,0.2,0,0.4-0.1,0.5
		c-0.1,0.1-0.2,0.1-0.3,0.1h-10.8v0.3c0,1.1,0.1,2.1,0.4,3c0.3,0.8,0.6,1.6,1.1,2.1c0.5,0.6,1.1,1,1.7,1.3c0.7,0.3,1.4,0.4,2.3,0.4
		c0.7,0,1.4-0.1,1.9-0.2c0.5-0.2,1-0.3,1.4-0.6c0.4-0.2,0.7-0.4,0.9-0.6c0.2-0.2,0.4-0.2,0.5-0.2c0.1,0,0.2,0.1,0.3,0.2l0.4,0.5
		c-0.2,0.3-0.6,0.6-0.9,0.8c-0.4,0.3-0.8,0.5-1.3,0.7c-0.5,0.2-1,0.3-1.6,0.4c-0.6,0.1-1.1,0.2-1.7,0.2c-1,0-1.9-0.2-2.8-0.5
		c-0.8-0.4-1.6-0.9-2.2-1.6c-0.6-0.7-1.1-1.5-1.4-2.5c-0.3-1-0.5-2.1-0.5-3.4c0-1.1,0.2-2.1,0.5-3c0.3-0.9,0.7-1.7,1.3-2.3
		c0.6-0.7,1.3-1.2,2.1-1.5c0.8-0.4,1.8-0.6,2.8-0.6C178.7,119.6,179.5,119.7,180.2,120 M175.8,121c-0.6,0.2-1.1,0.6-1.6,1
		c-0.4,0.5-0.8,1-1.1,1.6c-0.3,0.6-0.5,1.3-0.5,2.1h9.8c0-0.8-0.1-1.5-0.3-2.2c-0.2-0.6-0.5-1.2-0.9-1.6c-0.4-0.4-0.9-0.8-1.4-1
		c-0.6-0.2-1.2-0.4-1.9-0.4C177.1,120.6,176.4,120.8,175.8,121"/>
	<path class="st2" d="M209.2,134.3v0.5h-2h-0.8c-0.2,0-0.4-0.1-0.4-0.4l-0.2-2.4c-0.7,0.9-1.4,1.6-2.3,2.1c-0.9,0.5-1.9,0.8-3,0.8
		c-1.8,0-3.3-0.6-4.3-1.9c-1-1.3-1.5-3.2-1.5-5.7c0-1.1,0.1-2.1,0.4-3c0.3-0.9,0.7-1.8,1.3-2.5s1.2-1.2,2-1.6
		c0.8-0.4,1.7-0.6,2.8-0.6c1,0,1.9,0.2,2.6,0.6c0.7,0.4,1.4,0.9,1.9,1.6v-7.7c-0.3,0-0.5,0-0.7,0c-0.2,0-0.4,0-0.5,0
		c-0.1,0-0.2,0-0.2,0c-0.1,0-0.1,0-0.2,0c-0.4,0-0.6-0.2-0.6-0.5v-0.6h2.2h1.4v20.6c0.2,0,0.5,0,0.6,0c0.2,0,0.3,0,0.4,0
		c0.1,0,0.2,0,0.2,0c0.1,0,0.1,0,0.2,0c0.4,0,0.6,0.2,0.6,0.5V134.3z M205.8,123c-0.6-0.8-1.2-1.4-1.9-1.8c-0.7-0.3-1.5-0.5-2.4-0.5
		c-0.9,0-1.6,0.2-2.3,0.5c-0.7,0.3-1.2,0.8-1.7,1.4c-0.4,0.6-0.8,1.3-1,2.1c-0.2,0.8-0.3,1.7-0.3,2.7c0,2.2,0.4,3.8,1.2,4.9
		c0.8,1,2,1.6,3.5,1.6c1,0,1.9-0.3,2.7-0.8c0.8-0.5,1.5-1.2,2.1-2.1V123z"/>
	<path class="st2" d="M223.4,120.1l-0.2,1c0,0.2-0.1,0.2-0.3,0.2c-0.1,0-0.1,0-0.3-0.1c-0.1,0-0.2-0.1-0.4-0.1
		c-0.2,0-0.4-0.1-0.6-0.1c-0.2,0-0.5-0.1-0.8-0.1c-1.1,0-2.1,0.4-2.8,1.1c-0.7,0.7-1.3,1.7-1.8,3v8.5c1.2,0,1.4,0,1.6,0.1
		c0.4,0,0.6,0.1,0.6,0.5v0.6h-2.2h-1.4h-2.2v-0.6c0-0.4,0.2-0.5,0.6-0.5c0.2,0,0.3,0,1.6-0.1V121c-1.2,0-1.4-0.1-1.6-0.1
		c-0.4,0-0.6-0.1-0.6-0.5v-0.6h2.2h0.7c0.2,0,0.3,0,0.4,0.1c0.1,0.1,0.1,0.2,0.1,0.4l0.1,3.1c0.5-1.2,1.1-2.2,1.9-2.8
		c0.8-0.7,1.8-1,3-1c0.4,0,0.9,0,1.2,0.1C222.7,119.8,223,119.9,223.4,120.1"/>
	<path class="st2" d="M241.8,134.1v0.6h-2.2h-0.8c-0.3,0-0.4-0.1-0.4-0.4l-0.1-2.2c-0.7,0.9-1.5,1.5-2.4,2.1c-0.9,0.5-1.9,0.8-3,0.8
		c-0.8,0-1.6-0.1-2.2-0.4c-0.6-0.3-1.1-0.6-1.5-1.1c-0.4-0.5-0.7-1.1-0.9-1.8c-0.2-0.7-0.3-1.5-0.3-2.3V121c-0.3,0-0.5,0-0.7,0
		c-0.2,0-0.4,0-0.5,0c-0.1,0-0.2,0-0.2,0c-0.1,0-0.1,0-0.2,0c-0.4,0-0.6-0.2-0.6-0.5v-0.6h2.2l1.4,0v9.5c0,1.4,0.3,2.5,1,3.3
		c0.6,0.8,1.6,1.2,2.9,1.2c1,0,1.9-0.2,2.7-0.7c0.8-0.5,1.6-1.2,2.3-2.1v-10c-0.3,0-0.5,0-0.7,0c-0.2,0-0.4,0-0.5,0
		c-0.1,0-0.2,0-0.2,0c-0.1,0-0.1,0-0.2,0c-0.4,0-0.6-0.2-0.6-0.5v-0.6h2.2l1.4,0v13.7c0.3,0,0.5,0,0.7,0c0.2,0,0.4,0,0.5,0
		c0.1,0,0.2,0,0.2,0c0.1,0,0.1,0,0.2,0C241.6,133.6,241.8,133.8,241.8,134.1"/>
	<path class="st2" d="M259.1,127.2c0,1.1-0.1,2.1-0.4,3c-0.3,0.9-0.7,1.8-1.3,2.5c-0.5,0.7-1.2,1.2-2,1.6c-0.8,0.4-1.7,0.6-2.8,0.6
		c-1,0-1.9-0.2-2.6-0.6c-0.7-0.4-1.4-0.9-1.9-1.6v6.1c0.3,0,0.5,0,0.7,0c0.2,0,0.4,0,0.5,0c0.1,0,0.2,0,0.2,0c0.1,0,0.1,0,0.2,0
		c0.4,0,0.6,0.2,0.6,0.5v0.6H248h-1.4h-2.2v-0.6c0-0.3,0.2-0.5,0.6-0.5c0.1,0,0.1,0,0.2,0c0.1,0,0.2,0,0.5,0c0.2,0,0.5,0,0.9,0V121
		c-0.3,0-0.5,0-0.7,0c-0.2,0-0.4,0-0.5,0c-0.1,0-0.2,0-0.2,0c-0.1,0-0.1,0-0.2,0c-0.4,0-0.6-0.2-0.6-0.5v-0.6h2.2h0.8
		c0.1,0,0.2,0,0.3,0.1c0.1,0.1,0.1,0.2,0.1,0.3l0.1,2.3c0.7-0.9,1.4-1.6,2.3-2.1c0.9-0.5,1.9-0.8,3-0.8c1.8,0,3.3,0.6,4.3,1.9
		C258.6,122.7,259.1,124.6,259.1,127.2 M257.6,127.2c0-2.2-0.4-3.8-1.2-4.9c-0.8-1-2-1.6-3.5-1.6c-1,0-1.9,0.3-2.7,0.8
		c-0.8,0.5-1.5,1.2-2.1,2.1v7.8c0.6,0.9,1.2,1.5,1.9,1.8c0.7,0.3,1.5,0.5,2.4,0.5c0.9,0,1.6-0.2,2.3-0.5c0.7-0.3,1.2-0.8,1.7-1.4
		c0.4-0.6,0.8-1.3,1-2.1C257.5,129.1,257.6,128.2,257.6,127.2"/>
	<path class="st2" d="M275,134.1v0.6h-2h-0.5h0c-0.3,0-0.5-0.1-0.6-0.4l-0.2-1.9c-0.4,0.4-0.8,0.8-1.2,1.1c-0.4,0.3-0.8,0.6-1.3,0.8
		c-0.4,0.2-0.9,0.4-1.4,0.5c-0.5,0.1-1.1,0.2-1.7,0.2c-0.5,0-1-0.1-1.5-0.2c-0.5-0.2-0.9-0.4-1.3-0.7c-0.4-0.3-0.7-0.7-0.9-1.2
		c-0.2-0.5-0.3-1.1-0.3-1.7c0-0.6,0.2-1.2,0.5-1.8c0.4-0.5,0.9-1,1.7-1.4c0.8-0.4,1.7-0.7,3-1c1.2-0.2,2.6-0.4,4.3-0.4V125
		c0-1.4-0.3-2.4-0.9-3.2c-0.6-0.7-1.5-1.1-2.6-1.1c-0.7,0-1.3,0.1-1.8,0.3c-0.5,0.2-0.9,0.4-1.3,0.7c-0.4,0.2-0.6,0.5-0.9,0.7
		c-0.2,0.2-0.4,0.3-0.6,0.3c-0.2,0-0.3-0.1-0.4-0.3l-0.3-0.4c0.8-0.8,1.6-1.4,2.5-1.8c0.9-0.4,1.8-0.6,2.9-0.6
		c0.8,0,1.5,0.1,2.1,0.4c0.6,0.3,1.1,0.6,1.5,1.1c0.4,0.5,0.7,1,0.9,1.7c0.2,0.7,0.3,1.4,0.3,2.3v8.5c0.2,0,0.5,0,0.7,0
		c0.2,0,0.4,0,0.5,0c0.1,0,0.2,0,0.2,0C274.8,133.6,275,133.8,275,134.1 M271.7,127.5c-1.4,0-2.6,0.1-3.7,0.3
		c-1,0.2-1.9,0.4-2.5,0.7c-0.7,0.3-1.2,0.7-1.5,1.1c-0.3,0.4-0.5,0.9-0.5,1.4c0,0.5,0.1,0.9,0.2,1.3c0.2,0.4,0.4,0.7,0.7,0.9
		c0.3,0.2,0.6,0.4,0.9,0.5c0.4,0.1,0.7,0.2,1.1,0.2c0.6,0,1.1-0.1,1.6-0.2c0.5-0.1,0.9-0.3,1.3-0.5c0.4-0.2,0.8-0.5,1.2-0.8
		c0.4-0.3,0.7-0.6,1.1-1V127.5z"/>
	<path class="st2" d="M284.3,134.1v0.6h-2.2h-1.4h-2.2v-0.6c0-0.3,0.2-0.5,0.6-0.5c0.1,0,0.1,0,0.2,0c0.1,0,0.2,0,0.5,0
		c0.2,0,0.5,0,0.9,0v-19.4c-0.3,0-0.5,0-0.7,0c-0.2,0-0.4,0-0.5,0c-0.1,0-0.2,0-0.2,0s-0.1,0-0.2,0c-0.4,0-0.6-0.2-0.6-0.5v-0.6h2.2
		h1.4v20.6c0.3,0,0.5,0,0.7,0c0.2,0,0.4,0,0.5,0c0.1,0,0.2,0,0.2,0c0.1,0,0.1,0,0.2,0C284.1,133.6,284.3,133.8,284.3,134.1"/>
	<path class="st2" d="M304.4,120c0.7,0.3,1.3,0.7,1.9,1.3c0.5,0.6,0.9,1.2,1.2,2c0.3,0.8,0.4,1.7,0.4,2.8c0,0.2,0,0.4-0.1,0.5
		c-0.1,0.1-0.2,0.1-0.3,0.1h-10.8v0.3c0,1.1,0.1,2.1,0.4,3c0.3,0.8,0.6,1.6,1.1,2.1c0.5,0.6,1.1,1,1.7,1.3c0.7,0.3,1.4,0.4,2.3,0.4
		c0.7,0,1.4-0.1,1.9-0.2c0.6-0.2,1-0.3,1.4-0.6c0.4-0.2,0.7-0.4,0.9-0.6c0.2-0.2,0.4-0.2,0.5-0.2c0.1,0,0.2,0.1,0.3,0.2l0.4,0.5
		c-0.2,0.3-0.6,0.6-1,0.8c-0.4,0.3-0.8,0.5-1.3,0.7c-0.5,0.2-1,0.3-1.6,0.4c-0.6,0.1-1.1,0.2-1.7,0.2c-1,0-1.9-0.2-2.8-0.5
		c-0.8-0.4-1.6-0.9-2.2-1.6c-0.6-0.7-1.1-1.5-1.4-2.5c-0.3-1-0.5-2.1-0.5-3.4c0-1.1,0.1-2.1,0.5-3c0.3-0.9,0.7-1.7,1.3-2.3
		c0.6-0.7,1.3-1.2,2.1-1.5c0.8-0.4,1.8-0.6,2.8-0.6C302.9,119.6,303.7,119.7,304.4,120 M300,121c-0.6,0.2-1.1,0.6-1.6,1
		c-0.4,0.5-0.8,1-1.1,1.6c-0.3,0.6-0.5,1.3-0.5,2.1h9.8c0-0.8-0.1-1.5-0.3-2.2c-0.2-0.6-0.5-1.2-0.9-1.6c-0.4-0.4-0.9-0.8-1.4-1
		c-0.6-0.2-1.2-0.4-1.9-0.4C301.3,120.6,300.6,120.8,300,121"/>
	<path class="st2" d="M324.3,134.1v0.6h-1.4h-0.8h-2.3v-0.6c0-0.3,0.2-0.5,0.6-0.5c0,0,0.3,0,0.8,0l-4-5.8c0,0.2-0.1,0.4-0.2,0.5
		l-3.8,5.3c0.6,0,0.9,0,0.9,0c0.4,0,0.6,0.2,0.6,0.5v0.6h-2.3h-0.8h-1.4v-0.6c0-0.3,0.2-0.5,0.6-0.5c0,0,0.3,0,0.8,0l4.6-6.5
		L312,121c-0.6,0-0.9,0-0.9,0c-0.4,0-0.6-0.2-0.6-0.5v-0.6h0.7h1.4h0h0.1h2.3v0.6c0,0.3-0.2,0.5-0.6,0.5c0,0-0.3,0-0.7,0l3.8,5.5
		c0-0.2,0.1-0.4,0.3-0.5l3.5-4.9c-0.5,0-0.8,0-0.8,0c-0.4,0-0.6-0.2-0.6-0.5v-0.6h2.3h0.2h1.3h0.7v0.6c0,0.3-0.2,0.5-0.6,0.5
		c0,0-0.3,0-0.9,0l-4.4,6l4.6,6.5c0.5,0,0.8,0,0.8,0C324.1,133.6,324.3,133.8,324.3,134.1"/>
	<path class="st2" d="M341.8,127.2c0,1.1-0.1,2.1-0.4,3c-0.3,0.9-0.7,1.8-1.2,2.5c-0.6,0.7-1.2,1.2-2,1.6c-0.8,0.4-1.7,0.6-2.8,0.6
		c-1,0-1.9-0.2-2.6-0.6c-0.7-0.4-1.4-0.9-1.9-1.6v6.1c0.3,0,0.5,0,0.7,0c0.2,0,0.4,0,0.5,0c0.1,0,0.2,0,0.2,0c0.1,0,0.1,0,0.2,0
		c0.4,0,0.6,0.2,0.6,0.5v0.6h-2.2h-1.4h-2.2v-0.6c0-0.3,0.2-0.5,0.6-0.5c0.1,0,0.1,0,0.2,0c0.1,0,0.2,0,0.5,0c0.2,0,0.5,0,0.9,0V121
		c-0.3,0-0.5,0-0.7,0c-0.2,0-0.4,0-0.5,0s-0.2,0-0.2,0c-0.1,0-0.1,0-0.2,0c-0.4,0-0.6-0.2-0.6-0.5v-0.6h2.2h0.8c0.1,0,0.2,0,0.3,0.1
		c0.1,0.1,0.1,0.2,0.1,0.3l0.1,2.3c0.7-0.9,1.4-1.6,2.3-2.1c0.9-0.5,1.9-0.8,3-0.8c1.8,0,3.3,0.6,4.3,1.9
		C341.3,122.7,341.8,124.6,341.8,127.2 M340.3,127.2c0-2.2-0.4-3.8-1.2-4.9c-0.8-1-2-1.6-3.5-1.6c-1,0-1.9,0.3-2.7,0.8
		c-0.8,0.5-1.5,1.2-2.1,2.1v7.8c0.6,0.9,1.2,1.5,1.9,1.8c0.7,0.3,1.5,0.5,2.4,0.5c0.9,0,1.6-0.2,2.3-0.5c0.7-0.3,1.2-0.8,1.7-1.4
		c0.4-0.6,0.8-1.3,1-2.1C340.2,129.1,340.3,128.2,340.3,127.2"/>
	<path class="st2" d="M353.9,120c0.7,0.3,1.3,0.7,1.9,1.3c0.5,0.6,0.9,1.2,1.2,2c0.3,0.8,0.4,1.7,0.4,2.8c0,0.2,0,0.4-0.1,0.5
		c-0.1,0.1-0.2,0.1-0.3,0.1h-10.8v0.3c0,1.1,0.1,2.1,0.4,3c0.3,0.8,0.6,1.6,1.1,2.1c0.5,0.6,1.1,1,1.7,1.3c0.7,0.3,1.4,0.4,2.3,0.4
		c0.7,0,1.4-0.1,1.9-0.2c0.6-0.2,1-0.3,1.4-0.6c0.4-0.2,0.7-0.4,0.9-0.6c0.2-0.2,0.4-0.2,0.5-0.2c0.1,0,0.2,0.1,0.3,0.2l0.4,0.5
		c-0.2,0.3-0.6,0.6-1,0.8c-0.4,0.3-0.8,0.5-1.3,0.7c-0.5,0.2-1,0.3-1.6,0.4c-0.6,0.1-1.1,0.2-1.7,0.2c-1,0-1.9-0.2-2.8-0.5
		c-0.8-0.4-1.6-0.9-2.2-1.6c-0.6-0.7-1.1-1.5-1.4-2.5c-0.3-1-0.5-2.1-0.5-3.4c0-1.1,0.1-2.1,0.5-3c0.3-0.9,0.7-1.7,1.3-2.3
		c0.6-0.7,1.3-1.2,2.1-1.5c0.8-0.4,1.8-0.6,2.8-0.6C352.4,119.6,353.2,119.7,353.9,120 M349.5,121c-0.6,0.2-1.1,0.6-1.6,1
		c-0.4,0.5-0.8,1-1.1,1.6c-0.3,0.6-0.5,1.3-0.5,2.1h9.8c0-0.8-0.1-1.5-0.3-2.2c-0.2-0.6-0.5-1.2-0.9-1.6c-0.4-0.4-0.9-0.8-1.4-1
		c-0.6-0.2-1.2-0.4-1.9-0.4C350.8,120.6,350.1,120.8,349.5,121"/>
	<path class="st2" d="M371.6,120.1l-0.2,1c0,0.2-0.1,0.2-0.3,0.2c-0.1,0-0.1,0-0.3-0.1c-0.1,0-0.2-0.1-0.4-0.1
		c-0.2,0-0.4-0.1-0.6-0.1c-0.2,0-0.5-0.1-0.8-0.1c-1.1,0-2.1,0.4-2.8,1.1c-0.7,0.7-1.3,1.7-1.8,3v8.5c1.2,0,1.4,0,1.6,0.1
		c0.4,0,0.6,0.1,0.6,0.5v0.6h-2.2H363h-2.2v-0.6c0-0.4,0.2-0.5,0.6-0.5c0.2,0,0.3,0,1.6-0.1V121c-1.2,0-1.4-0.1-1.6-0.1
		c-0.4,0-0.6-0.1-0.6-0.5v-0.6h2.2h0.7c0.2,0,0.3,0,0.4,0.1c0.1,0.1,0.1,0.2,0.1,0.4l0.1,3.1c0.5-1.2,1.1-2.2,1.9-2.8
		c0.8-0.7,1.8-1,3-1c0.4,0,0.9,0,1.2,0.1C370.9,119.8,371.3,119.9,371.6,120.1"/>
	<path class="st2" d="M377.6,134.1c-0.6-0.6-0.8-1.4-0.8-2.6v-10.2h-2.1c-0.1,0-0.2,0-0.3-0.1c-0.1-0.1-0.1-0.1-0.1-0.3v-0.6
		l2.5-0.2l0.4-5.3c0-0.1,0-0.2,0.1-0.2s0.2-0.1,0.3-0.1h0.7v5.7h4.7v1.1h-4.7v10.1c0,0.4,0.1,0.8,0.2,1.1c0.1,0.3,0.2,0.5,0.4,0.7
		c0.2,0.2,0.4,0.3,0.7,0.4c0.2,0.1,0.5,0.1,0.8,0.1c0.4,0,0.7-0.1,0.9-0.2c0.3-0.1,0.5-0.2,0.7-0.3c0.2-0.1,0.3-0.2,0.5-0.3
		c0.1-0.1,0.2-0.2,0.3-0.2c0.1,0,0.2,0,0.2,0.2l0.4,0.6c-0.4,0.4-0.9,0.8-1.4,1c-0.6,0.3-1.2,0.4-1.8,0.4
		C379,135,378.2,134.7,377.6,134.1"/>
	<path class="st2" d="M396.7,130.4c0,0.7-0.1,1.3-0.4,1.8c-0.2,0.6-0.6,1-1,1.5c-0.4,0.4-1,0.7-1.6,1c-0.6,0.2-1.4,0.4-2.2,0.4
		c-1.5,0-3-0.3-4.4-0.8v-3.6h0.7c0.4,0,0.6,0.2,0.6,0.7c0,0,0,0.2,0,0.4c0,0.2,0,0.5,0.1,0.8c0,0.3,0.1,0.7,0.1,1.1
		c0.8,0.3,1.8,0.5,2.9,0.5c0.6,0,1.2-0.1,1.7-0.3c0.5-0.2,0.9-0.4,1.2-0.7c0.3-0.3,0.6-0.7,0.7-1.1c0.2-0.4,0.2-0.8,0.2-1.3
		c0-0.5-0.1-0.9-0.4-1.2c-0.2-0.3-0.6-0.6-0.9-0.8c-0.4-0.2-0.8-0.4-1.3-0.6s-1-0.3-1.5-0.5c-0.5-0.2-1-0.3-1.5-0.5
		c-0.5-0.2-0.9-0.4-1.3-0.7c-0.4-0.3-0.7-0.6-0.9-1.1c-0.2-0.4-0.4-0.9-0.4-1.6c0-0.5,0.1-1,0.3-1.5c0.2-0.5,0.6-0.9,1-1.3
		c0.4-0.4,0.9-0.7,1.6-0.9c0.6-0.2,1.3-0.3,2.1-0.3c1.1,0,2.4,0.3,4,0.8v3.6h-0.7c-0.4,0-0.6-0.2-0.7-0.7c0,0,0-0.2,0-0.3
		c0-0.2,0-0.4-0.1-0.8c0-0.3,0-0.7-0.1-1c-0.8-0.3-1.6-0.4-2.4-0.4c-0.5,0-1,0.1-1.5,0.2c-0.4,0.2-0.8,0.4-1.1,0.6
		c-0.3,0.3-0.6,0.6-0.7,0.9c-0.2,0.3-0.3,0.7-0.3,1.1c0,0.5,0.1,0.9,0.4,1.2c0.2,0.3,0.6,0.6,0.9,0.8c0.4,0.2,0.8,0.4,1.3,0.6
		c0.5,0.2,1,0.3,1.5,0.5c0.5,0.2,1,0.3,1.5,0.5c0.5,0.2,0.9,0.4,1.3,0.7c0.4,0.3,0.7,0.6,0.9,1.1
		C396.6,129.3,396.7,129.8,396.7,130.4"/>
</g>
</svg>
