<?xml version="1.0" standalone="no"?>
<!DOCTYPE svg PUBLIC "-//W3C//DTD SVG 20010904//EN"
 "http://www.w3.org/TR/2001/REC-SVG-20010904/DTD/svg10.dtd">
<svg version="1.0" xmlns="http://www.w3.org/2000/svg"
 width="16.000000pt" height="16.000000pt" viewBox="0 0 16.000000 16.000000"
 preserveAspectRatio="xMidYMid meet">
<metadata>
Created by potrace 1.11, written by Peter Selinger 2001-2013
</metadata>
<g transform="translate(0.000000,16.000000) scale(0.002286,-0.002286)"
fill="#000000" stroke="none">
<path d="M4300 6360 c-958 -74 -1607 -470 -1853 -1130 -162 -436 -139 -1069
53 -1450 110 -219 323 -421 580 -550 317 -159 663 -255 1362 -376 525 -90 678
-127 823 -194 138 -64 185 -136 185 -279 0 -93 -13 -141 -52 -203 -110 -175
-504 -244 -1173 -208 -263 15 -897 72 -1348 121 -207 23 -379 40 -381 38 -7
-7 -54 -1224 -47 -1231 14 -16 959 -164 1301 -203 977 -113 1661 -72 2214 131
229 84 414 197 575 350 250 238 396 558 440 966 23 204 9 566 -29 758 -109
564 -449 884 -1160 1093 -205 61 -411 103 -860 178 -576 95 -754 135 -881 199
-125 64 -159 118 -159 256 0 166 46 253 169 318 161 84 460 111 951 86 422
-22 1022 -76 1678 -151 56 -7 106 -9 110 -5 7 7 37 1214 30 1221 -10 10 -727
128 -1028 169 -632 87 -1171 121 -1500 96z"/>
<path d="M0 1450 l0 -700 700 0 700 0 0 700 0 700 -700 0 -700 0 0 -700z"/>
</g>
</svg>
